<svg xmlns:dc="http://purl.org/dc/elements/1.1/" xmlns:cc="http://creativecommons.org/ns#" xmlns:rdf="http://www.w3.org/1999/02/22-rdf-syntax-ns#" xmlns:svg="http://www.w3.org/2000/svg" xmlns="http://www.w3.org/2000/svg" xmlns:sodipodi="http://sodipodi.sourceforge.net/DTD/sodipodi-0.dtd" xmlns:inkscape="http://www.inkscape.org/namespaces/inkscape" viewBox="0 0 24 30" version="1.1" x="0px" y="0px"><path style="color:#000000;font-style:normal;font-variant:normal;font-weight:normal;font-stretch:normal;font-size:medium;line-height:normal;font-family:sans-serif;text-indent:0;text-align:start;text-decoration:none;text-decoration-line:none;text-decoration-style:solid;text-decoration-color:#000000;letter-spacing:normal;word-spacing:normal;text-transform:none;direction:ltr;block-progression:tb;writing-mode:lr-tb;baseline-shift:baseline;text-anchor:start;white-space:normal;clip-rule:nonzero;display:inline;overflow:visible;visibility:visible;opacity:1;isolation:auto;mix-blend-mode:normal;color-interpolation:sRGB;color-interpolation-filters:linearRGB;solid-color:#000000;solid-opacity:1;fill:#000000;fill-opacity:1;fill-rule:nonzero;stroke:none;stroke-width:2;stroke-linecap:round;stroke-linejoin:round;stroke-miterlimit:4;stroke-dasharray:none;stroke-dashoffset:0;stroke-opacity:1;color-rendering:auto;image-rendering:auto;shape-rendering:auto;text-rendering:auto;enable-background:accumulate" d="m 10.9707,2.9960852 c -0.18741,0.006 -0.36947,0.0638 -0.52539,0.16797 l -5.74804,3.83203 -3.69727,0 c -0.55226,6e-5 -0.99994,0.44774 -1,1 l 0,7.9999998 c 6e-5,0.55226 0.44774,0.99994 1,1 l 3.69727,0 5.74804,3.83203 c 0.66455,0.44284 1.55452,-0.0334 1.55469,-0.83203 L 12,3.9960852 c 1.8e-4,-0.56391 -0.46563,-1.01646 -1.0293,-1 z m 8.05469,1.06836 A 1.0001,1.0001 0 0 0 18.5,5.9374952 c 2.16726,1.25127 3.5,3.55996 3.5,6.0624998 0,2.50254 -1.33274,4.81123 -3.5,6.0625 a 1.0001599,1.0001599 0 1 0 1,1.73242 c 2.78329,-1.60693 4.5,-4.58105 4.5,-7.79492 0,-3.2138698 -1.71671,-6.1879898 -4.5,-7.7949198 a 1.0001,1.0001 0 0 0 -0.47461,-0.14063 z M 10,5.8652252 10,18.126945 5.57617,15.146475 C 5.4239,15.049775 5.23157,14.992805 5,14.996085 l -3,0 0,-5.9999998 3,0 c 0.22737,0.003 0.41744,-0.051 0.56836,-0.14453 L 10,5.8652252 Z m 6.52539,0.79688 a 1.0001,1.0001 0 0 0 -0.0996,0.002 1.0001,1.0001 0 0 0 -0.42578,1.8711 c 1.23899,0.71533 2,2.0341698 2,3.4648398 0,1.43067 -0.76101,2.74951 -2,3.46484 a 1.0001642,1.0001642 0 0 0 1,1.73243 c 1.85502,-1.071 3,-3.05528 3,-5.19727 0,-2.1419898 -1.14498,-4.1243198 -3,-5.1953098 a 1.0001,1.0001 0 0 0 -0.47461,-0.14258 z m -2.5,2.59961 A 1.0001,1.0001 0 0 0 13.5,11.134765 c 0.31079,0.17943 0.5,0.50636 0.5,0.86523 0,0.35887 -0.18921,0.68775 -0.5,0.86719 a 1.0001,1.0001 0 1 0 1,1.73047 c 0.92681,-0.5351 1.5,-1.52747 1.5,-2.59766 0,-1.07019 -0.57319,-2.0625598 -1.5,-2.5976598 a 1.0001,1.0001 0 0 0 -0.47461,-0.14062 z"/><text x="0" y="39" fill="#000000" font-size="5px" font-weight="bold" font-family="'Helvetica Neue', Helvetica, Arial-Unicode, Arial, Sans-serif">Created by Ravindra Kalkani</text><text x="0" y="44" fill="#000000" font-size="5px" font-weight="bold" font-family="'Helvetica Neue', Helvetica, Arial-Unicode, Arial, Sans-serif">from the Noun Project</text></svg>